<svg width="24" height="24" viewBox="0 0 24 24" fill="none" xmlns="http://www.w3.org/2000/svg">
<path d="M5.29842 3.81119L5.3 3.79134V3.77143C5.3 2.98942 5.50493 2.14024 5.89351 1.50324C6.27725 0.874184 6.80298 0.5 7.46667 0.5C8.36329 0.5 9.1634 1.13362 9.76931 2.16112C10.3687 3.17756 10.7 4.46138 10.7 5.48571C10.7 6.26772 10.4951 7.11691 10.1065 7.7539C9.72275 8.38296 9.19702 8.75714 8.53333 8.75714C7.53392 8.75714 6.69288 8.10592 6.09736 7.09602C5.50266 6.08752 5.21809 4.81811 5.29842 3.81119ZM18.5222 3.94286C18.5222 4.87595 18.1939 6.116 17.5938 7.11371C16.9874 8.12178 16.187 8.75714 15.2889 8.75714C14.6252 8.75714 14.0995 8.38296 13.7157 7.7539C13.3272 7.11691 13.1222 6.26772 13.1222 5.48571C13.1222 4.55262 13.4506 3.31258 14.0507 2.31486C14.657 1.3068 15.4574 0.671428 16.3556 0.671428C17.0192 0.671428 17.545 1.04561 17.9287 1.67467C18.3173 2.31167 18.5222 3.16085 18.5222 3.94286ZM18.2778 12.8571C18.2778 11.8466 18.6457 10.6125 19.2847 9.63857C19.9283 8.65757 20.7727 8.04286 21.6889 8.04286C22.1971 8.04286 22.6355 8.31267 22.9665 8.79148C23.3016 9.27621 23.5 9.94548 23.5 10.6286C23.5 11.6391 23.132 12.8732 22.4931 13.8471C21.8494 14.8281 21.0051 15.4429 20.0889 15.4429C19.4787 15.4429 19.0495 15.1608 18.752 14.7052C18.4418 14.2301 18.2778 13.5619 18.2778 12.8571ZM2.31111 8.04286C3.13219 8.04286 3.97856 8.64928 4.65268 9.64466C5.31697 10.6255 5.72222 11.8581 5.72222 12.8571C5.72222 13.5619 5.55821 14.2301 5.24801 14.7052C4.95051 15.1608 4.52132 15.4429 3.91111 15.4429C3.09003 15.4429 2.24367 14.8364 1.56955 13.8411C0.905253 12.8602 0.5 11.6276 0.5 10.6286C0.5 9.92379 0.664011 9.25558 0.974212 8.7805C1.27172 8.32487 1.7009 8.04286 2.31111 8.04286ZM4.05556 21.7714C4.05556 20.0631 5.16471 17.8639 6.77307 16.0615C7.56825 15.1703 8.46401 14.4014 9.36387 13.8585C10.2687 13.3125 11.1451 13.0143 11.9111 13.0143C12.6771 13.0143 13.5536 13.3125 14.4584 13.8585C15.3582 14.4014 16.254 15.1703 17.0492 16.0615C18.6575 17.8639 19.7667 20.0631 19.7667 21.7714C19.7667 22.1708 19.6825 22.4561 19.5618 22.6646C19.4414 22.8724 19.2683 23.0322 19.0458 23.1559C18.5829 23.4135 17.9337 23.5 17.2444 23.5C16.3756 23.5 15.5717 23.1962 14.695 22.8493C14.6637 22.8369 14.6322 22.8244 14.6005 22.8119C13.7813 22.4873 12.8763 22.1286 11.9111 22.1286C10.8619 22.1286 9.91464 22.4856 9.04582 22.813C9.0162 22.8241 8.98667 22.8352 8.95724 22.8463C8.03925 23.1918 7.18595 23.5 6.22222 23.5C5.55675 23.5 5.0104 23.3771 4.64264 23.1192C4.30628 22.8833 4.05556 22.4903 4.05556 21.7714Z" stroke="#009B72"/>
</svg>
