<svg width="30" height="30" viewBox="0 0 30 30" fill="none" xmlns="http://www.w3.org/2000/svg">
<path fill-rule="evenodd" clip-rule="evenodd" d="M19.8094 6.29999C20.129 5.92244 20.5849 5.6865 21.0777 5.64358C21.5705 5.60066 22.0604 5.75423 22.4404 6.07084C22.8205 6.38745 23.0601 6.84144 23.107 7.3339C23.1538 7.82636 23.0042 8.31738 22.6906 8.69999L17.4406 15L22.6906 21.3C22.8505 21.4889 22.9715 21.7076 23.0465 21.9434C23.1214 22.1793 23.149 22.4276 23.1275 22.6742C23.106 22.9208 23.036 23.1606 22.9213 23.38C22.8067 23.5993 22.6498 23.7938 22.4596 23.9522C22.2695 24.1106 22.0498 24.2298 21.8134 24.3029C21.5769 24.376 21.3284 24.4015 21.082 24.3781C20.8356 24.3546 20.5963 24.2826 20.3779 24.1663C20.1595 24.0499 19.9662 23.8914 19.8094 23.7L15 17.9294L10.1906 23.7012C9.87228 24.0833 9.4152 24.3233 8.91993 24.3684C8.42466 24.4134 7.93177 24.2599 7.54969 23.9416C7.16761 23.6232 6.92764 23.1661 6.88258 22.6709C6.83751 22.1756 6.99103 21.6827 7.30938 21.3006L12.5594 15.0006L7.30938 8.70062C6.99582 8.31801 6.84616 7.82698 6.89302 7.33452C6.93988 6.84206 7.17946 6.38807 7.55955 6.07146C7.93965 5.75486 8.42946 5.60128 8.92228 5.64421C9.4151 5.68713 9.87099 5.92307 10.1906 6.30062L15 12.0706L19.8094 6.29874V6.29999ZM21.65 7.01999C21.5227 6.91395 21.3585 6.86281 21.1934 6.87782C21.0284 6.89282 20.8761 6.97273 20.77 7.09999L20.29 6.69999L20.77 7.09999L15.48 13.4475C15.4213 13.5178 15.3479 13.5744 15.265 13.6133C15.1821 13.6521 15.0916 13.6722 15 13.6722C14.9084 13.6722 14.8179 13.6521 14.735 13.6133C14.6521 13.5744 14.5787 13.5178 14.52 13.4475L9.23 7.09999C9.1782 7.03471 9.11387 6.98044 9.04078 6.94039C8.9677 6.90034 8.88735 6.8753 8.80445 6.86676C8.72155 6.85822 8.63778 6.86635 8.55806 6.89066C8.47835 6.91497 8.4043 6.95498 8.34028 7.00833C8.27626 7.06169 8.22355 7.1273 8.18527 7.20132C8.14698 7.27535 8.12388 7.35628 8.11733 7.43936C8.11078 7.52244 8.12091 7.60599 8.14713 7.6851C8.17335 7.76421 8.21513 7.83727 8.27 7.89999L13.8531 14.6C13.9467 14.7123 13.9979 14.8538 13.9979 15C13.9979 15.1462 13.9467 15.2877 13.8531 15.4L8.27 22.1C8.21513 22.1627 8.17335 22.2358 8.14713 22.3149C8.12091 22.394 8.11078 22.4775 8.11733 22.5606C8.12388 22.6437 8.14698 22.7246 8.18527 22.7987C8.22355 22.8727 8.27626 22.9383 8.34028 22.9917C8.4043 23.045 8.47835 23.085 8.55806 23.1093C8.63778 23.1336 8.72155 23.1418 8.80445 23.1332C8.88735 23.1247 8.9677 23.0997 9.04078 23.0596C9.11387 23.0195 9.1782 22.9653 9.23 22.9L14.52 16.5525C14.5787 16.4822 14.6521 16.4256 14.735 16.3867C14.8179 16.3479 14.9084 16.3278 15 16.3278C15.0916 16.3278 15.1821 16.3479 15.265 16.3867C15.3479 16.4256 15.4213 16.4822 15.48 16.5525L20.77 22.9C20.8774 23.0228 21.0286 23.0987 21.1913 23.1115C21.3539 23.1244 21.5152 23.0731 21.6405 22.9686C21.7659 22.8642 21.8454 22.7148 21.8621 22.5525C21.8788 22.3902 21.8314 22.2278 21.73 22.1L16.1469 15.4C16.0533 15.2877 16.0021 15.1462 16.0021 15C16.0021 14.8538 16.0533 14.7123 16.1469 14.6L21.73 7.89999C21.836 7.77267 21.8872 7.60845 21.8722 7.44343C21.8572 7.27842 21.7773 7.12611 21.65 7.01999Z" fill="#545454"/>
</svg>
