<svg width="24" height="24" viewBox="0 0 24 24" fill="none" xmlns="http://www.w3.org/2000/svg">
<path d="M21.4695 2.68794L21.4699 2.68835C22.0976 3.37362 22.602 4.19175 22.9528 5.09818C23.3166 6.04168 23.5026 7.0439 23.5 8.07705V8.07832C23.5 9.04985 23.3222 10.0712 22.963 11.1197L22.9626 11.1207C22.6649 11.9962 22.2285 12.9129 21.6683 13.8464C20.7812 15.3225 19.5541 16.874 18.0183 18.4567C15.4675 21.0833 12.9447 22.896 12.8467 22.9662L12.8466 22.9663L12.1891 23.4369C12.189 23.437 12.1889 23.4371 12.1887 23.4372C12.0709 23.5209 11.9291 23.5209 11.8112 23.4372C11.8111 23.4371 11.811 23.437 11.8108 23.4369L11.1534 22.9663L11.1535 22.9662L11.1455 22.9607L11.1454 22.9606C11.1452 22.9605 11.1443 22.9599 11.1427 22.9588L11.1344 22.9529L11.1059 22.9325C11.0821 22.9154 11.0491 22.8914 11.0076 22.861C10.9247 22.8002 10.8082 22.7137 10.6631 22.6033C10.3727 22.3826 9.96785 22.0671 9.48621 21.6713C8.52225 20.8791 7.25426 19.7686 5.98175 18.4568L5.9817 18.4567C4.44584 16.874 3.21873 15.3225 2.33172 13.8464C1.77206 12.9139 1.33795 11.9967 1.03696 11.1197C0.677741 10.0712 0.5 9.04985 0.5 8.07832C0.5 7.04432 0.68619 6.0417 1.04992 5.09822C1.39963 4.1913 1.90412 3.37312 2.53244 2.6888L2.53308 2.6881C3.16523 1.99697 3.89792 1.45756 4.70749 1.08341L4.70807 1.08315C5.54538 0.694908 6.4293 0.500022 7.34251 0.500022C8.60873 0.500022 9.84741 0.886741 10.9282 1.62272L10.9282 1.62273C11.1869 1.7989 11.4328 1.99241 11.6658 2.2034L12.0014 2.50725L12.337 2.2034C12.57 1.99241 12.8158 1.7989 13.0745 1.62273L13.0746 1.62272C14.1553 0.886741 15.394 0.500022 16.6602 0.500023L16.6615 0.50002C17.5633 0.497703 18.4582 0.695275 19.2947 1.08315L19.2954 1.08346C20.102 1.45602 20.8406 1.99978 21.4695 2.68794Z" stroke="#E5383B"/>
</svg>
