<svg width="24" height="24" viewBox="0 0 24 24" fill="none" xmlns="http://www.w3.org/2000/svg">
<path d="M23.4193 4.91832C23.047 3.95587 22.51 3.08369 21.8386 2.35064C21.1667 1.61539 20.3745 1.0311 19.505 0.62954C18.6035 0.211494 17.6365 -0.0024864 16.6602 2.1797e-05C15.2906 2.1797e-05 13.9544 0.418667 12.7931 1.20944C12.5153 1.39861 12.2514 1.60638 12.0014 1.83276C11.7513 1.60638 11.4874 1.39861 11.2096 1.20944C10.0484 0.418667 8.71211 2.1797e-05 7.34251 2.1797e-05C6.35628 2.1797e-05 5.40062 0.210895 4.49774 0.62954C3.62542 1.03268 2.83921 1.61258 2.16414 2.35064C1.49183 3.08287 0.95477 3.95524 0.5834 4.91832C0.197245 5.91997 0 6.98364 0 8.07832C0 9.11097 0.188911 10.187 0.563954 11.2817C0.877878 12.1965 1.32793 13.1455 1.903 14.1037C2.81421 15.6201 4.06713 17.2017 5.62287 18.8049C8.20094 21.4625 10.754 23.2984 10.8624 23.3728L11.5208 23.8442C11.8125 24.0519 12.1875 24.0519 12.4792 23.8442L13.1376 23.3728C13.246 23.2953 15.7963 21.4625 18.3771 18.8049C19.9328 17.2017 21.1858 15.6201 22.097 14.1037C22.672 13.1455 23.1249 12.1965 23.436 11.2817C23.8111 10.187 24 9.11097 24 8.07832C24.0027 6.98364 23.8055 5.91997 23.4193 4.91832V4.91832Z" fill="#E5383B"/>
</svg>
