<svg width="24" height="24" viewBox="0 0 24 24" fill="none" xmlns="http://www.w3.org/2000/svg">
<path d="M15.2889 9.25714C17.6 9.25714 19.0222 6 19.0222 3.94286C19.0222 2.22857 18.1333 0.171428 16.3556 0.171428C14.0444 0.171428 12.6222 3.42857 12.6222 5.48571C12.6222 7.2 13.5111 9.25714 15.2889 9.25714V9.25714ZM8.53333 9.25714C10.3111 9.25714 11.2 7.2 11.2 5.48571C11.2 3.25714 9.77778 0 7.46667 0C5.68889 0 4.8 2.05714 4.8 3.77143C4.62222 6 6.04445 9.25714 8.53333 9.25714V9.25714ZM21.6889 7.54286C19.3778 7.54286 17.7778 10.6286 17.7778 12.8571C17.7778 14.4 18.4889 15.9429 20.0889 15.9429C22.4 15.9429 24 12.8571 24 10.6286C24 9.08571 23.1111 7.54286 21.6889 7.54286V7.54286ZM6.22222 12.8571C6.22222 10.6286 4.44444 7.54286 2.31111 7.54286C0.711111 7.54286 0 9.08571 0 10.6286C0 12.8571 1.77778 15.9429 3.91111 15.9429C5.51111 15.9429 6.22222 14.4 6.22222 12.8571ZM11.9111 12.5143C8.35556 12.5143 3.55556 18 3.55556 21.7714C3.55556 23.4857 4.8 24 6.22222 24C8.35556 24 9.95556 22.6286 11.9111 22.6286C13.6889 22.6286 15.2889 24 17.2444 24C18.6667 24 20.2667 23.6571 20.2667 21.7714C20.2667 18 15.4667 12.5143 11.9111 12.5143V12.5143Z" fill="#009B72"/>
</svg>
