<svg width="149" height="108" viewBox="0 0 149 108" fill="none" xmlns="http://www.w3.org/2000/svg">
<path d="M98.8525 56.1275C98.8525 55.4157 98.6208 54.831 98.1574 54.3735L70.973 27.5299C70.5096 27.0723 69.9176 26.8436 69.1968 26.8436C68.476 26.8436 67.8839 27.0723 67.4205 27.5299L40.3133 54.2972C39.7984 54.9073 39.541 55.5174 39.541 56.1275C39.541 56.8392 39.7727 57.4239 40.2361 57.8814C40.6994 58.339 41.2915 58.5678 42.0123 58.5678H59.3115V85.4113C59.3115 86.0723 59.5561 86.6442 60.0452 87.1272C60.5343 87.6102 61.1135 87.8517 61.7828 87.8517H76.6107C77.28 87.8517 77.8592 87.6102 78.3483 87.1272C78.8374 86.6442 79.082 86.0723 79.082 85.4113V58.5678H96.3812C97.0505 58.5678 97.6297 58.3263 98.1188 57.8433C98.6079 57.3603 98.8525 56.7884 98.8525 56.1275ZM148.279 78.0904C148.279 86.1739 145.383 93.0755 139.591 98.795C133.798 104.515 126.809 107.374 118.623 107.374H34.5984C25.0735 107.374 16.9259 104.032 10.1555 97.3461C3.38518 90.6606 0 82.6151 0 73.2097C0 66.6005 1.802 60.4997 5.406 54.9073C9.00999 49.3149 13.8496 45.1206 19.925 42.3244C19.822 40.7992 19.7705 39.7061 19.7705 39.0452C19.7705 28.2671 23.6319 19.065 31.3548 11.439C39.0776 3.81301 48.3965 0 59.3115 0C67.3433 0 74.6928 2.21154 81.3602 6.63463C88.0276 11.0577 92.8802 16.9297 95.9178 24.2507C99.5733 21.0986 103.847 19.5226 108.738 19.5226C114.195 19.5226 118.855 21.4291 122.716 25.2421C126.578 29.0551 128.508 33.6561 128.508 39.0452C128.508 42.909 127.453 46.417 125.342 49.5691C132.035 51.1451 137.531 54.5895 141.83 59.9023C146.129 65.2151 148.279 71.2778 148.279 78.0904Z" fill="#009DDC"/>
</svg>
