<svg width="60" height="61" viewBox="0 0 60 61" fill="none" xmlns="http://www.w3.org/2000/svg">
<ellipse cx="30" cy="30.1282" rx="30" ry="30.1282" fill="#25D366"/>
<path d="M21.1873 40.7634L22.5036 41.4911C24.7235 42.7161 27.2484 43.3592 29.8182 43.3542C32.695 43.3542 35.5072 42.5471 37.8992 41.0348C40.2912 39.5226 42.1555 37.3732 43.2564 34.8585C44.3574 32.3438 44.6454 29.5767 44.0842 26.907C43.5229 24.2374 42.1376 21.7852 40.1034 19.8605C38.0692 17.9359 35.4774 16.6251 32.6559 16.0941C29.8343 15.5631 26.9097 15.8356 24.2519 16.8773C21.5941 17.9189 19.3224 19.6828 17.7241 21.946C16.1258 24.2092 15.2727 26.87 15.2727 29.5919C15.2674 32.0242 15.9478 34.4138 17.2436 36.5144L18.0109 37.7598L16.8236 41.8902L21.1873 40.7634ZM11.6436 46.7948L14.1018 38.2484C12.4821 35.6213 11.6311 32.6334 11.6364 29.5919C11.6364 20.0908 19.7764 12.3891 29.8182 12.3891C39.86 12.3891 48 20.0908 48 29.5919C48 39.0931 39.86 46.7948 29.8182 46.7948C26.6051 46.7997 23.4485 45.9951 20.6727 44.4638L11.6436 46.7948ZM23.2564 21.5204C23.5 21.5032 23.7455 21.5032 23.9891 21.5135C24.0873 21.5204 24.1855 21.5307 24.2836 21.541C24.5727 21.572 24.8909 21.7388 24.9982 21.9694C25.54 23.1323 26.0673 24.3038 26.5764 25.4787C26.6891 25.7402 26.6218 26.0757 26.4073 26.4025C26.2597 26.6235 26.1001 26.8371 25.9291 27.0425C25.7236 27.2919 25.2818 27.7495 25.2818 27.7495C25.2818 27.7495 25.1018 27.9525 25.1709 28.2054C25.1964 28.3017 25.28 28.4411 25.3564 28.558L25.4636 28.7215C25.9291 29.456 26.5546 30.2009 27.3182 30.9028C27.5364 31.1023 27.7491 31.3071 27.9782 31.498C28.8291 32.2085 29.7927 32.7882 30.8327 33.2183L30.8418 33.2217C30.9964 33.2854 31.0746 33.3198 31.3 33.411C31.4127 33.4557 31.5291 33.4953 31.6473 33.5245C31.7694 33.5539 31.898 33.5484 32.0168 33.5086C32.1356 33.4688 32.2392 33.3965 32.3146 33.3009C33.6309 31.7922 33.7509 31.6941 33.7618 31.6941V31.6976C33.8533 31.6169 33.9619 31.5556 34.0805 31.5179C34.199 31.4802 34.3247 31.467 34.4491 31.4791C34.5582 31.486 34.6691 31.5049 34.7709 31.5479C35.7364 31.9659 37.3164 32.6179 37.3164 32.6179L38.3746 33.0669C38.5527 33.1478 38.7146 33.3387 38.72 33.5228C38.7273 33.638 38.7382 33.8238 38.6964 34.1644C38.6382 34.61 38.4964 35.145 38.3546 35.4254C38.2574 35.6168 38.1285 35.7922 37.9727 35.9449C37.7893 36.1272 37.5884 36.293 37.3727 36.4404C37.2981 36.4935 37.2223 36.5451 37.1455 36.5952C36.9193 36.731 36.687 36.8572 36.4491 36.9737C35.981 37.2089 35.4639 37.344 34.9346 37.3693C34.5982 37.3865 34.2618 37.4106 33.9236 37.3934C33.9091 37.3934 32.8909 37.2438 32.8909 37.2438C30.3059 36.6004 27.9153 35.3952 25.9091 33.7241C25.4982 33.3817 25.1182 33.0136 24.7291 32.6472C23.1109 31.1247 21.8891 29.4818 21.1473 27.9301C20.7676 27.1685 20.5625 26.3396 20.5455 25.4977C20.538 24.4532 20.8988 23.4362 21.5709 22.6076C21.7036 22.4459 21.8291 22.2773 22.0455 22.0829C22.2764 21.8765 22.4218 21.7664 22.58 21.6907C22.7903 21.5909 23.0198 21.5324 23.2546 21.5186L23.2564 21.5204Z" fill="white"/>
</svg>
